# xmcd
#
# Track frame offsets:
#	150
#	20067
#	40025
#
# Disc length: 626 seconds
#
# Revision: 1
# Processed by: cddbd v1.5.2PL0 Copyright (c) Steve Scherf et al.
# Submitted via: EasyCDDAExtractor 9.0.0.1
#
DISCID=1c027003
DTITLE=Brian Adams - Io vivo (in te)
DYEAR=2001
DGENRE=
TTITLE0=Io vivo (in te)
TTITLE1=I'm ready
TTITLE2=(I wanna be your) Underwear
EXTD=YEAR: 2004
EXTT0=
EXTT1=
EXTT2=
PLAYORDER=
